<mxfile host="app.diagrams.net" modified="2024-07-08T23:43:47.819Z" agent="Mozilla/5.0 (Windows NT 10.0; Win64; x64) AppleWebKit/537.36 (KHTML, like Gecko) Chrome/125.0.0.0 Safari/537.36 OPR/111.0.0.0" etag="7AQMMFpYThGMfsOVwJad" version="24.6.4" type="github">
  <diagram name="PÃ¡gina-1" id="oXakhC1TmSf3ep0skeQ1">
    <mxGraphModel dx="993" dy="1606" grid="1" gridSize="10" guides="1" tooltips="1" connect="1" arrows="1" fold="1" page="1" pageScale="1" pageWidth="827" pageHeight="1169" math="0" shadow="0">
      <root>
        <mxCell id="0" />
        <mxCell id="1" parent="0" />
        <mxCell id="zC4cPMUoiZVNZGJ5EED5-3" value="&amp;lt;&amp;lt;abstract&amp;gt;&amp;gt;&lt;br&gt;&lt;b&gt;Telefone&lt;/b&gt;" style="swimlane;fontStyle=0;align=center;verticalAlign=top;childLayout=stackLayout;horizontal=1;startSize=40;horizontalStack=0;resizeParent=1;resizeParentMax=0;resizeLast=0;collapsible=0;marginBottom=0;html=1;whiteSpace=wrap;" parent="1" vertex="1">
          <mxGeometry x="130" y="140" width="140" height="100" as="geometry" />
        </mxCell>
        <mxCell id="zC4cPMUoiZVNZGJ5EED5-4" value="+ ligar(String numero)&lt;div&gt;+ atender(): void&lt;/div&gt;&lt;div&gt;+ correioDeVoz(): void&lt;/div&gt;" style="text;html=1;strokeColor=none;fillColor=none;align=left;verticalAlign=middle;spacingLeft=4;spacingRight=4;overflow=hidden;rotatable=0;points=[[0,0.5],[1,0.5]];portConstraint=eastwest;whiteSpace=wrap;" parent="zC4cPMUoiZVNZGJ5EED5-3" vertex="1">
          <mxGeometry y="40" width="140" height="60" as="geometry" />
        </mxCell>
        <mxCell id="zC4cPMUoiZVNZGJ5EED5-6" value="&amp;lt;&amp;lt;abstract&amp;gt;&amp;gt;&lt;br&gt;&lt;b&gt;Ipad&lt;/b&gt;" style="swimlane;fontStyle=0;align=center;verticalAlign=top;childLayout=stackLayout;horizontal=1;startSize=40;horizontalStack=0;resizeParent=1;resizeParentMax=0;resizeLast=0;collapsible=0;marginBottom=0;html=1;whiteSpace=wrap;" parent="1" vertex="1">
          <mxGeometry x="330" y="140" width="160" height="100" as="geometry" />
        </mxCell>
        <mxCell id="zC4cPMUoiZVNZGJ5EED5-7" value="+ tocar(): void&lt;div&gt;+ pausar(): void&lt;/div&gt;&lt;div&gt;+ selecionarMusica(String musica)&lt;/div&gt;" style="text;html=1;strokeColor=none;fillColor=none;align=left;verticalAlign=middle;spacingLeft=4;spacingRight=4;overflow=hidden;rotatable=0;points=[[0,0.5],[1,0.5]];portConstraint=eastwest;whiteSpace=wrap;" parent="zC4cPMUoiZVNZGJ5EED5-6" vertex="1">
          <mxGeometry y="40" width="160" height="60" as="geometry" />
        </mxCell>
        <mxCell id="PS32VhlFR5PoLe8zSd68-5" style="edgeStyle=orthogonalEdgeStyle;rounded=0;orthogonalLoop=1;jettySize=auto;html=1;exitX=0.5;exitY=0;exitDx=0;exitDy=0;entryX=0.5;entryY=1;entryDx=0;entryDy=0;" edge="1" parent="1" source="zC4cPMUoiZVNZGJ5EED5-8" target="PS32VhlFR5PoLe8zSd68-1">
          <mxGeometry relative="1" as="geometry" />
        </mxCell>
        <mxCell id="zC4cPMUoiZVNZGJ5EED5-8" value="&amp;lt;&amp;lt;abstract&amp;gt;&amp;gt;&lt;br&gt;&lt;b&gt;Navegador de Internet&lt;/b&gt;" style="swimlane;fontStyle=0;align=center;verticalAlign=top;childLayout=stackLayout;horizontal=1;startSize=40;horizontalStack=0;resizeParent=1;resizeParentMax=0;resizeLast=0;collapsible=0;marginBottom=0;html=1;whiteSpace=wrap;" parent="1" vertex="1">
          <mxGeometry x="560" y="140" width="160" height="100" as="geometry" />
        </mxCell>
        <mxCell id="zC4cPMUoiZVNZGJ5EED5-9" value="+ exibirPagina(String url)&lt;div&gt;+ adcionarNovaAba(): void&lt;/div&gt;&lt;div&gt;+ atualizarPagina(): void&lt;/div&gt;" style="text;html=1;strokeColor=none;fillColor=none;align=left;verticalAlign=middle;spacingLeft=4;spacingRight=4;overflow=hidden;rotatable=0;points=[[0,0.5],[1,0.5]];portConstraint=eastwest;whiteSpace=wrap;" parent="zC4cPMUoiZVNZGJ5EED5-8" vertex="1">
          <mxGeometry y="40" width="160" height="60" as="geometry" />
        </mxCell>
        <mxCell id="PS32VhlFR5PoLe8zSd68-3" style="edgeStyle=orthogonalEdgeStyle;rounded=0;orthogonalLoop=1;jettySize=auto;html=1;exitX=0.5;exitY=1;exitDx=0;exitDy=0;" edge="1" parent="1" source="PS32VhlFR5PoLe8zSd68-1" target="zC4cPMUoiZVNZGJ5EED5-3">
          <mxGeometry relative="1" as="geometry" />
        </mxCell>
        <mxCell id="PS32VhlFR5PoLe8zSd68-4" style="edgeStyle=orthogonalEdgeStyle;rounded=0;orthogonalLoop=1;jettySize=auto;html=1;entryX=0.5;entryY=0;entryDx=0;entryDy=0;exitX=0.5;exitY=1;exitDx=0;exitDy=0;" edge="1" parent="1" source="PS32VhlFR5PoLe8zSd68-1" target="zC4cPMUoiZVNZGJ5EED5-6">
          <mxGeometry relative="1" as="geometry">
            <mxPoint x="670" y="40" as="sourcePoint" />
          </mxGeometry>
        </mxCell>
        <mxCell id="PS32VhlFR5PoLe8zSd68-1" value="&lt;b&gt;Iphone&lt;/b&gt;" style="swimlane;fontStyle=0;align=center;verticalAlign=top;childLayout=stackLayout;horizontal=1;startSize=40;horizontalStack=0;resizeParent=1;resizeParentMax=0;resizeLast=0;collapsible=0;marginBottom=0;html=1;whiteSpace=wrap;" vertex="1" parent="1">
          <mxGeometry x="340" y="-110" width="140" height="60" as="geometry" />
        </mxCell>
      </root>
    </mxGraphModel>
  </diagram>
</mxfile>
